<svg width="64" height="64" viewBox="0 0 64 64" fill="none" xmlns="http://www.w3.org/2000/svg">
<path d="M2.53808 14.0055C2.2622 14.0055 2.03333 13.782 2.03333 13.5056C2.03333 13.2292 2.25195 13.0057 2.5282 13.0057H2.53795C2.8142 13.0057 3.03783 13.2292 3.03783 13.5056C3.03783 13.782 2.81433 14.0055 2.53808 14.0055ZM4.53745 14.0055C4.26157 14.0055 4.0327 13.782 4.0327 13.5056C4.0327 13.2292 4.25133 13.0057 4.52758 13.0057H4.53745C4.8137 13.0057 5.03733 13.2292 5.03733 13.5056C5.03733 13.782 4.8137 14.0055 4.53745 14.0055ZM6.53683 14.0055C6.26095 14.0055 6.03208 13.782 6.03208 13.5056C6.03208 13.2292 6.2507 13.0057 6.52695 13.0057H6.5367C6.81295 13.0057 7.03658 13.2292 7.03658 13.5056C7.03658 13.782 6.81308 14.0055 6.53683 14.0055Z" fill="#003B80"/>
<path d="M52.4934 15.0053H0.50903C0.443377 15.0053 0.37836 14.9924 0.317698 14.9673C0.257035 14.9422 0.201916 14.9053 0.155492 14.8589C0.109068 14.8125 0.0722486 14.7574 0.0471391 14.6967C0.0220297 14.6361 0.00912248 14.571 0.00915534 14.5054V13.5056C0.00915534 12.6788 0.68178 12.006 1.50866 12.006H51.4939C52.3208 12.006 52.9934 12.6786 52.9934 13.5056V14.5054C52.9934 14.5711 52.9805 14.6361 52.9554 14.6967C52.9303 14.7574 52.8935 14.8125 52.847 14.859C52.8006 14.9054 52.7455 14.9422 52.6848 14.9673C52.6241 14.9924 52.5591 15.0053 52.4934 15.0053ZM1.00878 14.0055H51.9937V13.5056C51.9937 13.2343 51.7642 13.0058 51.4939 13.0058H1.50866C1.37613 13.0059 1.24908 13.0586 1.15537 13.1524C1.06166 13.2461 1.00895 13.3731 1.00878 13.5056V14.0055Z" fill="#003B80"/>
<path d="M52.4934 24.0025C52.4278 24.0025 52.3627 23.9896 52.3021 23.9645C52.2414 23.9394 52.1863 23.9026 52.1399 23.8561C52.0935 23.8097 52.0567 23.7546 52.0316 23.6939C52.0065 23.6333 51.9936 23.5683 51.9937 23.5026V14.5054C51.9936 14.4397 52.0065 14.3747 52.0316 14.3141C52.0567 14.2534 52.0935 14.1983 52.1399 14.1519C52.1864 14.1055 52.2415 14.0686 52.3021 14.0435C52.3628 14.0184 52.4278 14.0055 52.4934 14.0055C52.7698 14.0055 52.9934 14.2291 52.9934 14.5054V23.5026C52.9934 23.5683 52.9805 23.6333 52.9554 23.694C52.9303 23.7547 52.8935 23.8098 52.847 23.8562C52.8006 23.9026 52.7455 23.9394 52.6848 23.9645C52.6241 23.9896 52.5591 24.0025 52.4934 24.0025ZM0.50903 51.9939C0.443377 51.9939 0.37836 51.981 0.317698 51.9559C0.257035 51.9308 0.201916 51.894 0.155492 51.8475C0.109068 51.8011 0.0722486 51.746 0.0471391 51.6853C0.0220297 51.6247 0.00912248 51.5596 0.00915534 51.494V14.5054C0.00912248 14.4397 0.0220297 14.3747 0.0471391 14.314C0.0722486 14.2534 0.109068 14.1983 0.155492 14.1518C0.201916 14.1054 0.257035 14.0686 0.317698 14.0435C0.37836 14.0184 0.443377 14.0055 0.50903 14.0055C0.574684 14.0055 0.639701 14.0184 0.700363 14.0435C0.761026 14.0686 0.816144 14.1054 0.862569 14.1518C0.908993 14.1983 0.945812 14.2534 0.970922 14.314C0.996031 14.3747 1.00894 14.4397 1.00891 14.5054V51.494C1.00892 51.5596 0.996003 51.6247 0.970888 51.6853C0.945773 51.746 0.908953 51.8011 0.862532 51.8475C0.816111 51.8939 0.760999 51.9307 0.700344 51.9558C0.639689 51.981 0.574679 51.9939 0.50903 51.9939Z" fill="#003B80"/>
<path d="M48.4947 51.9939H0.50903C0.23278 51.9939 0.00915527 51.7703 0.00915527 51.494C0.00915527 51.2178 0.23278 50.9941 0.50903 50.9941H48.4947C48.771 50.9941 48.9947 51.2178 48.9947 51.494C48.9947 51.7703 48.771 51.9939 48.4947 51.9939ZM52.4934 51.9939C52.3687 51.9943 52.2485 51.9475 52.1568 51.863C52.0588 51.7738 52.0003 51.6494 51.994 51.517C51.9878 51.3847 52.0344 51.2553 52.1235 51.1573L62.1204 40.1919C62.1645 40.143 62.2178 40.1034 62.2773 40.0753C62.3368 40.0472 62.4013 40.0312 62.467 40.0282C62.5328 40.0252 62.5984 40.0353 62.6603 40.0579C62.7221 40.0804 62.7788 40.115 62.8272 40.1596C62.8757 40.2038 62.9151 40.2571 62.943 40.3165C62.9709 40.3759 62.9868 40.4402 62.9898 40.5058C62.9928 40.5714 62.9828 40.6369 62.9604 40.6986C62.9381 40.7603 62.9037 40.817 62.8594 40.8654L52.8625 51.8308C52.8158 51.8823 52.7589 51.9234 52.6953 51.9515C52.6317 51.9796 52.5629 51.994 52.4934 51.9939Z" fill="#003B80"/>
<path d="M52.4923 51.9939C52.4151 51.9941 52.3389 51.976 52.27 51.9412C52.2112 51.9119 52.1588 51.8713 52.1157 51.8217C52.0727 51.7721 52.0398 51.7145 52.0191 51.6522C51.9983 51.5899 51.99 51.5242 51.9947 51.4587C51.9994 51.3932 52.0169 51.3292 52.0463 51.2705L57.0448 41.2735C57.1686 41.0275 57.4675 40.925 57.7155 41.0499C57.8339 41.1094 57.924 41.2133 57.9659 41.3391C58.0078 41.4648 57.9982 41.602 57.9391 41.7207L52.9406 51.7175C52.8988 51.8006 52.8348 51.8705 52.7556 51.9193C52.6765 51.9681 52.5853 51.9939 52.4923 51.9939Z" fill="#003B80"/>
<path d="M57.491 41.997C57.375 41.9967 57.2628 41.9561 57.1734 41.8822C57.084 41.8083 57.0231 41.7057 57.001 41.5919C56.9759 41.4618 57.0035 41.3271 57.0775 41.2173C57.1516 41.1075 57.2662 41.0316 57.3962 41.0061L62.3947 40.0376C62.4592 40.0252 62.5255 40.0256 62.5899 40.0387C62.6542 40.0519 62.7153 40.0777 62.7697 40.1145C62.8241 40.1513 62.8707 40.1984 62.9069 40.2533C62.9431 40.3081 62.9681 40.3695 62.9805 40.434C63.0058 40.5641 62.9783 40.6989 62.9042 40.8088C62.8301 40.9187 62.7153 40.9946 62.5852 41.0199L57.5867 41.9883C57.5545 41.994 57.5222 41.997 57.491 41.997Z" fill="#003B80"/>
<path d="M62.4905 41.0286C62.4246 41.0288 62.3593 41.0159 62.2984 40.9906C62.2376 40.9652 62.1824 40.928 62.136 40.8811L57.1378 35.8514C57.0914 35.8049 57.0546 35.7497 57.0296 35.689C57.0045 35.6283 56.9918 35.5633 56.9919 35.4976C56.9921 35.4319 57.0053 35.3669 57.0307 35.3064C57.056 35.2458 57.0931 35.1908 57.1398 35.1446C57.1863 35.0982 57.2414 35.0615 57.3021 35.0365C57.3629 35.0114 57.4279 34.9987 57.4936 34.9988C57.5592 34.999 57.6242 35.0122 57.6848 35.0375C57.7454 35.0629 57.8003 35.1 57.8465 35.1466L62.8448 40.1764C62.9381 40.2704 62.9903 40.3977 62.99 40.5302C62.9896 40.6627 62.9367 40.7896 62.8428 40.8831C62.7492 40.9762 62.6225 41.0285 62.4905 41.0286Z" fill="#003B80"/>
<path d="M57.4919 41.997C57.4263 41.997 57.3613 41.9841 57.3006 41.959C57.2399 41.9339 57.1848 41.8971 57.1384 41.8507C57.092 41.8043 57.0552 41.7491 57.0301 41.6885C57.005 41.6278 56.9921 41.5628 56.9922 41.4971V35.499C56.9922 35.2227 57.2156 34.9991 57.4919 34.9991C57.7683 34.9991 57.9917 35.2227 57.9917 35.499V41.4971C57.9917 41.5628 57.9788 41.6278 57.9538 41.6884C57.9287 41.7491 57.8918 41.8042 57.8454 41.8506C57.799 41.8971 57.7439 41.9339 57.6833 41.959C57.6226 41.9841 57.5576 41.997 57.4919 41.997Z" fill="#003B80"/>
<path d="M57.492 41.997C57.4187 41.997 57.3462 41.981 57.2798 41.9499C57.2133 41.9189 57.1545 41.8736 57.1075 41.8174L52.109 35.8191C52.0242 35.7172 51.9834 35.5858 51.9955 35.4538C52.0076 35.3218 52.0716 35.2001 52.1735 35.1153C52.2753 35.0306 52.4066 34.9897 52.5385 35.0016C52.6705 35.0135 52.7923 35.0772 52.8774 35.1788L57.8759 41.1769C57.9366 41.2499 57.9754 41.3387 57.9875 41.4329C57.9997 41.5271 57.9847 41.6229 57.9445 41.7089C57.9042 41.7949 57.8403 41.8677 57.7601 41.9188C57.68 41.9698 57.587 41.9969 57.492 41.997Z" fill="#003B80"/>
<path d="M47.4942 41.997C47.3774 41.9969 47.2643 41.9558 47.1748 41.8807C47.0729 41.7959 47.0089 41.6741 46.9968 41.5422C46.9847 41.4102 47.0255 41.2788 47.1103 41.1769L52.1088 35.1787C52.1941 35.0772 52.3161 35.0135 52.4481 35.0016C52.5802 34.9897 52.7116 35.0306 52.8137 35.1152C52.9154 35.2002 52.9792 35.322 52.9911 35.454C53.003 35.586 52.962 35.7173 52.8772 35.8191L47.8787 41.8174C47.8316 41.8737 47.7728 41.9189 47.7064 41.95C47.6399 41.981 47.5675 41.9971 47.4942 41.997Z" fill="#003B80"/>
<path d="M57.492 41.997H47.4951C47.2187 41.997 46.9951 41.7735 46.9951 41.4971C46.9951 41.4315 47.008 41.3665 47.0331 41.3058C47.0583 41.2451 47.0951 41.19 47.1415 41.1436C47.188 41.0972 47.2431 41.0604 47.3038 41.0353C47.3644 41.0102 47.4295 40.9973 47.4951 40.9974H57.492C57.5576 40.9973 57.6226 41.0102 57.6833 41.0353C57.744 41.0604 57.7991 41.0972 57.8455 41.1436C57.8919 41.1901 57.9287 41.2452 57.9538 41.3058C57.9789 41.3665 57.9918 41.4315 57.9917 41.4971C57.9918 41.5628 57.9789 41.6278 57.9538 41.6884C57.9287 41.7491 57.8919 41.8042 57.8455 41.8507C57.7991 41.8971 57.744 41.9339 57.6833 41.959C57.6227 41.9841 57.5576 41.997 57.492 41.997Z" fill="#003B80"/>
<path d="M52.4933 51.9939C52.4005 51.9938 52.3096 51.968 52.2306 51.9191C52.1517 51.8703 52.0879 51.8005 52.0463 51.7175L47.0478 41.7206C47.0184 41.6619 47.0009 41.598 46.9962 41.5325C46.9915 41.467 46.9998 41.4012 47.0206 41.3389C47.0413 41.2766 47.0742 41.219 47.1172 41.1694C47.1603 41.1198 47.2127 41.0792 47.2715 41.0499C47.5176 40.925 47.8181 41.0275 47.9421 41.2735L52.9406 51.2705C52.9786 51.3467 52.9965 51.4314 52.9926 51.5165C52.9887 51.6016 52.9631 51.6842 52.9183 51.7567C52.8736 51.8291 52.811 51.8889 52.7366 51.9305C52.6623 51.972 52.5785 51.9938 52.4933 51.9939ZM42.4966 41.0286C42.3645 41.0287 42.2377 40.9763 42.1441 40.8831C42.0975 40.8369 42.0604 40.7819 42.0351 40.7213C42.0098 40.6608 41.9966 40.5958 41.9965 40.5302C41.9963 40.4645 42.009 40.3995 42.034 40.3388C42.059 40.278 42.0957 40.2229 42.1421 40.1764L47.1406 35.1466C47.335 34.9505 47.6511 34.9514 47.8473 35.1446C47.9411 35.2382 47.994 35.3651 47.9944 35.4976C47.9948 35.6301 47.9426 35.7573 47.8493 35.8514L42.8508 40.8811C42.8045 40.928 42.7493 40.9651 42.6885 40.9904C42.6277 41.0158 42.5625 41.0287 42.4966 41.0286Z" fill="#003B80"/>
<path d="M47.4952 41.997C47.4639 41.997 47.4317 41.9941 47.3994 41.9883L42.4009 41.0199C42.2709 40.9945 42.1562 40.9185 42.0821 40.8087C42.008 40.6989 41.9805 40.5641 42.0057 40.434C42.0582 40.1636 42.3199 39.9898 42.5914 40.0376L47.5899 41.0061C47.6543 41.0186 47.7157 41.0437 47.7704 41.0799C47.8251 41.1161 47.8722 41.1627 47.9089 41.2171C47.9456 41.2715 47.9712 41.3326 47.9843 41.3969C47.9974 41.4612 47.9977 41.5275 47.9852 41.5919C47.9633 41.7058 47.9024 41.8086 47.813 41.8825C47.7236 41.9565 47.6112 41.9969 47.4952 41.997Z" fill="#003B80"/>
<path d="M52.4933 51.9939C52.4237 51.994 52.3548 51.9795 52.2911 51.9514C52.2274 51.9233 52.1703 51.8822 52.1235 51.8307L42.1263 40.8654C42.0373 40.7673 41.9908 40.6379 41.997 40.5056C42.0032 40.3733 42.0617 40.2489 42.1596 40.1596C42.3627 39.9731 42.6811 39.9867 42.8653 40.1919L52.8625 51.1572C52.9068 51.2056 52.9411 51.2623 52.9635 51.324C52.9859 51.3857 52.9958 51.4512 52.9928 51.5168C52.9898 51.5824 52.9739 51.6467 52.946 51.7061C52.9181 51.7655 52.8788 51.8188 52.8302 51.863C52.7383 51.9474 52.6181 51.9941 52.4933 51.9939ZM47.4951 41.997C47.2187 41.997 46.9951 41.7735 46.9951 41.4971V35.499C46.9951 35.4333 47.008 35.3683 47.0331 35.3076C47.0582 35.247 47.095 35.1918 47.1415 35.1454C47.1879 35.099 47.243 35.0622 47.3037 35.0371C47.3644 35.012 47.4294 34.9991 47.4951 34.9991C47.5607 34.9991 47.6257 35.012 47.6864 35.0371C47.747 35.0622 47.8021 35.0991 47.8485 35.1455C47.895 35.1919 47.9318 35.247 47.9569 35.3077C47.982 35.3683 47.9949 35.4333 47.9948 35.499V41.4971C47.9949 41.5628 47.982 41.6278 47.9569 41.6884C47.9318 41.7491 47.895 41.8042 47.8486 41.8506C47.8022 41.8971 47.7471 41.9339 47.6864 41.959C47.6257 41.9841 47.5607 41.997 47.4951 41.997Z" fill="#003B80"/>
<path d="M57.492 35.9987H47.4951C47.2187 35.9987 46.9951 35.7751 46.9951 35.4989C46.9951 35.2226 47.2187 34.999 47.4951 34.999H57.492C57.7684 34.999 57.9917 35.2226 57.9917 35.4989C57.9917 35.7751 57.7682 35.9987 57.492 35.9987ZM52.4934 32.9997C52.4277 32.9998 52.3627 32.9868 52.3021 32.9617C52.2414 32.9366 52.1863 32.8998 52.1399 32.8534C52.0935 32.8069 52.0567 32.7518 52.0316 32.6912C52.0065 32.6305 51.9936 32.5655 51.9936 32.4999V26.5017C51.9936 26.4361 52.0065 26.3711 52.0316 26.3104C52.0567 26.2498 52.0935 26.1947 52.1399 26.1482C52.1863 26.1018 52.2414 26.065 52.3021 26.0399C52.3627 26.0148 52.4277 26.0018 52.4934 26.0019C52.7697 26.0019 52.9934 26.2255 52.9934 26.5017V32.4999C52.9934 32.5655 52.9805 32.6306 52.9554 32.6912C52.9302 32.7519 52.8934 32.807 52.847 32.8534C52.8005 32.8999 52.7454 32.9367 52.6847 32.9618C52.6241 32.9869 52.559 32.9998 52.4934 32.9997ZM45.4956 33.9994C45.43 33.9994 45.365 33.9866 45.3044 33.9614C45.2437 33.9363 45.1887 33.8995 45.1424 33.853L41.1436 29.8541C41.0972 29.8077 41.0604 29.7526 41.0353 29.692C41.0101 29.6313 40.9972 29.5664 40.9972 29.5007C40.9972 29.4351 41.0101 29.3701 41.0352 29.3095C41.0603 29.2488 41.0971 29.1937 41.1435 29.1473C41.19 29.1009 41.245 29.0641 41.3057 29.0389C41.3663 29.0138 41.4313 29.0009 41.4969 29.0009C41.5626 29.0009 41.6276 29.0138 41.6882 29.0389C41.7488 29.064 41.8039 29.1008 41.8504 29.1472L45.8491 33.146C45.919 33.2159 45.9665 33.305 45.9858 33.4019C46.0051 33.4989 45.9951 33.5994 45.9573 33.6907C45.9195 33.782 45.8554 33.8601 45.7733 33.915C45.6911 33.97 45.5945 33.9993 45.4956 33.9994ZM59.4915 33.9994C59.3926 33.9994 59.2959 33.9701 59.2137 33.9152C59.1315 33.8603 59.0674 33.7822 59.0295 33.6909C58.9917 33.5995 58.9818 33.499 59.0011 33.402C59.0204 33.3051 59.068 33.216 59.138 33.1461L63.1377 29.1474C63.1841 29.101 63.2392 29.0641 63.2999 29.039C63.3605 29.0139 63.4255 29.001 63.4912 29.001C63.5568 29.001 63.6218 29.0139 63.6824 29.0391C63.743 29.0642 63.7981 29.101 63.8445 29.1474C63.891 29.1938 63.9278 29.2489 63.9529 29.3096C63.978 29.3702 63.9909 29.4352 63.9909 29.5008C63.9909 29.5665 63.978 29.6315 63.9528 29.6921C63.9277 29.7527 63.8909 29.8078 63.8445 29.8542L59.8447 33.8531C59.7984 33.8995 59.7433 33.9363 59.6827 33.9614C59.6221 33.9865 59.5571 33.9994 59.4915 33.9994Z" fill="#003B80"/>
<path d="M2.50842 51.9939C2.44277 51.9939 2.37775 51.981 2.31709 51.9559C2.25642 51.9308 2.20131 51.894 2.15488 51.8475C2.10846 51.8011 2.07164 51.746 2.04653 51.6853C2.02142 51.6247 2.00851 51.5596 2.00854 51.494V14.5054C2.00851 14.4397 2.02142 14.3747 2.04653 14.314C2.07164 14.2534 2.10846 14.1983 2.15488 14.1518C2.20131 14.1054 2.25642 14.0686 2.31709 14.0435C2.37775 14.0184 2.44277 14.0055 2.50842 14.0055C2.57407 14.0055 2.63909 14.0184 2.69975 14.0435C2.76042 14.0686 2.81553 14.1054 2.86196 14.1518C2.90838 14.1983 2.9452 14.2534 2.97031 14.314C2.99542 14.3747 3.00833 14.4397 3.00829 14.5054V51.494C3.00831 51.5596 2.99539 51.6247 2.97028 51.6853C2.94516 51.746 2.90834 51.8011 2.86192 51.8475C2.8155 51.8939 2.76039 51.9307 2.69973 51.9558C2.63908 51.981 2.57407 51.9939 2.50842 51.9939Z" fill="#003B80"/>
<path d="M1.50866 19.004H0.50903C0.23278 19.004 0.00915527 18.7804 0.00915527 18.5041C0.00915527 18.2279 0.23278 18.0042 0.50903 18.0042H1.50866C1.78491 18.0042 2.00853 18.2279 2.00853 18.5041C2.00853 18.7804 1.78491 19.004 1.50866 19.004Z" fill="#003B80"/>
<path d="M1.50866 22.003H0.50903C0.23278 22.003 0.00915527 21.7795 0.00915527 21.5031C0.00915527 21.2267 0.23278 21.0032 0.50903 21.0032H1.50866C1.78491 21.0032 2.00853 21.2267 2.00853 21.5031C2.00853 21.7795 1.78491 22.003 1.50866 22.003Z" fill="#003B80"/>
<path d="M1.50866 25.0023H0.50903C0.443377 25.0023 0.37836 24.9894 0.317698 24.9643C0.257035 24.9392 0.201916 24.9023 0.155492 24.8559C0.109068 24.8095 0.0722486 24.7544 0.0471391 24.6937C0.0220297 24.633 0.00912248 24.568 0.00915534 24.5024C0.00912248 24.4367 0.0220297 24.3717 0.0471391 24.311C0.0722486 24.2504 0.109068 24.1953 0.155492 24.1488C0.201916 24.1024 0.257035 24.0656 0.317698 24.0405C0.37836 24.0154 0.443377 24.0025 0.50903 24.0025H1.50866C1.57431 24.0025 1.63933 24.0154 1.69999 24.0405C1.76065 24.0656 1.81577 24.1024 1.86219 24.1488C1.90862 24.1953 1.94544 24.2504 1.97055 24.311C1.99566 24.3717 2.00856 24.4367 2.00853 24.5024C2.00856 24.568 1.99566 24.633 1.97055 24.6937C1.94544 24.7544 1.90862 24.8095 1.86219 24.8559C1.81577 24.9023 1.76065 24.9392 1.69999 24.9643C1.63933 24.9894 1.57431 25.0023 1.50866 25.0023Z" fill="#003B80"/>
<path d="M1.50866 28.0012H0.50903C0.443377 28.0013 0.37836 27.9884 0.317698 27.9633C0.257035 27.9382 0.201916 27.9013 0.155492 27.8549C0.109068 27.8085 0.0722486 27.7534 0.0471391 27.6927C0.0220297 27.632 0.00912248 27.567 0.00915534 27.5014C0.00912248 27.4357 0.0220297 27.3707 0.0471391 27.31C0.0722486 27.2494 0.109068 27.1943 0.155492 27.1478C0.201916 27.1014 0.257035 27.0646 0.317698 27.0395C0.37836 27.0144 0.443377 27.0015 0.50903 27.0015H1.50866C1.57431 27.0015 1.63933 27.0144 1.69999 27.0395C1.76065 27.0646 1.81577 27.1014 1.86219 27.1478C1.90862 27.1943 1.94544 27.2494 1.97055 27.31C1.99566 27.3707 2.00856 27.4357 2.00853 27.5014C2.00856 27.567 1.99566 27.632 1.97055 27.6927C1.94544 27.7534 1.90862 27.8085 1.86219 27.8549C1.81577 27.9013 1.76065 27.9382 1.69999 27.9633C1.63933 27.9884 1.57431 28.0013 1.50866 28.0012Z" fill="#003B80"/>
<path d="M1.50866 31.0002H0.50903C0.443377 31.0003 0.37836 30.9874 0.317698 30.9623C0.257035 30.9371 0.201916 30.9003 0.155492 30.8539C0.109068 30.8075 0.0722486 30.7524 0.0471391 30.6917C0.0220297 30.631 0.00912248 30.566 0.00915534 30.5004C0.00912248 30.4347 0.0220297 30.3697 0.0471391 30.309C0.0722486 30.2484 0.109068 30.1933 0.155492 30.1468C0.201916 30.1004 0.257035 30.0636 0.317698 30.0385C0.37836 30.0134 0.443377 30.0005 0.50903 30.0005H1.50866C1.57431 30.0005 1.63933 30.0134 1.69999 30.0385C1.76065 30.0636 1.81577 30.1004 1.86219 30.1468C1.90862 30.1933 1.94544 30.2484 1.97055 30.309C1.99566 30.3697 2.00856 30.4347 2.00853 30.5004C2.00856 30.566 1.99566 30.631 1.97055 30.6917C1.94544 30.7524 1.90862 30.8075 1.86219 30.8539C1.81577 30.9003 1.76065 30.9371 1.69999 30.9623C1.63933 30.9874 1.57431 31.0003 1.50866 31.0002Z" fill="#003B80"/>
<path d="M1.50866 33.9994H0.50903C0.443377 33.9994 0.37836 33.9865 0.317698 33.9614C0.257035 33.9363 0.201916 33.8995 0.155492 33.853C0.109068 33.8066 0.0722486 33.7515 0.0471391 33.6908C0.0220297 33.6302 0.00912248 33.5652 0.00915534 33.4995C0.00912246 33.4339 0.0220306 33.3688 0.0471415 33.3082C0.0722525 33.2475 0.109074 33.1924 0.1555 33.146C0.201925 33.0996 0.257045 33.0628 0.317707 33.0377C0.378369 33.0126 0.443382 32.9997 0.50903 32.9998H1.50866C1.5743 32.9997 1.63932 33.0126 1.69998 33.0377C1.76064 33.0628 1.81576 33.0996 1.86219 33.146C1.90861 33.1924 1.94543 33.2475 1.97054 33.3082C1.99565 33.3688 2.00856 33.4339 2.00853 33.4995C2.00856 33.5652 1.99566 33.6302 1.97055 33.6908C1.94544 33.7515 1.90862 33.8066 1.86219 33.853C1.81577 33.8995 1.76065 33.9363 1.69999 33.9614C1.63933 33.9865 1.57431 33.9994 1.50866 33.9994Z" fill="#003B80"/>
<path d="M1.50866 36.9985H0.50903C0.23278 36.9985 0.00915527 36.7749 0.00915527 36.4986C0.00915527 36.2224 0.23278 35.9987 0.50903 35.9987H1.50866C1.78491 35.9987 2.00853 36.2224 2.00853 36.4986C2.00853 36.7749 1.78491 36.9985 1.50866 36.9985Z" fill="#003B80"/>
<path d="M1.50866 39.9975H0.50903C0.23278 39.9975 0.00915527 39.7739 0.00915527 39.4976C0.00915527 39.2214 0.23278 38.9977 0.50903 38.9977H1.50866C1.78491 38.9977 2.00853 39.2214 2.00853 39.4976C2.00853 39.7739 1.78491 39.9975 1.50866 39.9975Z" fill="#003B80"/>
<path d="M1.50866 42.9966H0.50903C0.443382 42.9967 0.378369 42.9838 0.317707 42.9587C0.257045 42.9336 0.201925 42.8968 0.1555 42.8504C0.109074 42.804 0.0722525 42.7489 0.0471415 42.6882C0.0220306 42.6275 0.00912246 42.5625 0.00915534 42.4969C0.00912248 42.4312 0.0220297 42.3662 0.0471391 42.3055C0.0722486 42.2449 0.109068 42.1898 0.155492 42.1433C0.201916 42.0969 0.257035 42.0601 0.317698 42.035C0.37836 42.0099 0.443377 41.997 0.50903 41.997H1.50866C1.57431 41.997 1.63933 42.0099 1.69999 42.035C1.76065 42.0601 1.81577 42.0969 1.86219 42.1433C1.90862 42.1898 1.94544 42.2449 1.97055 42.3055C1.99566 42.3662 2.00856 42.4312 2.00853 42.4969C2.00856 42.5625 1.99565 42.6275 1.97054 42.6882C1.94543 42.7489 1.90861 42.804 1.86219 42.8504C1.81576 42.8968 1.76064 42.9336 1.69998 42.9587C1.63932 42.9838 1.5743 42.9967 1.50866 42.9966Z" fill="#003B80"/>
<path d="M1.50866 45.9957H0.50903C0.443377 45.9958 0.37836 45.9828 0.317698 45.9577C0.257035 45.9326 0.201916 45.8958 0.155492 45.8494C0.109068 45.803 0.0722486 45.7478 0.0471391 45.6872C0.0220297 45.6265 0.00912248 45.5615 0.00915534 45.4958C0.00912246 45.4302 0.0220306 45.3652 0.0471415 45.3045C0.0722525 45.2439 0.109074 45.1888 0.1555 45.1423C0.201925 45.0959 0.257045 45.0591 0.317707 45.034C0.378369 45.0089 0.443382 44.996 0.50903 44.9961H1.50866C1.5743 44.996 1.63932 45.0089 1.69998 45.034C1.76064 45.0591 1.81576 45.0959 1.86219 45.1423C1.90861 45.1888 1.94543 45.2439 1.97054 45.3045C1.99565 45.3652 2.00856 45.4302 2.00853 45.4958C2.00856 45.5615 1.99566 45.6265 1.97055 45.6872C1.94544 45.7478 1.90862 45.803 1.86219 45.8494C1.81577 45.8958 1.76065 45.9326 1.69999 45.9577C1.63933 45.9828 1.57431 45.9958 1.50866 45.9957Z" fill="#003B80"/>
<path d="M1.50866 48.9947H0.50903C0.443377 48.9948 0.37836 48.9819 0.317698 48.9568C0.257035 48.9317 0.201916 48.8948 0.155492 48.8484C0.109068 48.802 0.0722486 48.7469 0.0471391 48.6862C0.0220297 48.6255 0.00912248 48.5605 0.00915534 48.4949C0.00912246 48.4292 0.0220306 48.3642 0.0471415 48.3036C0.0722525 48.2429 0.109074 48.1878 0.1555 48.1414C0.201925 48.095 0.257045 48.0582 0.317707 48.0331C0.378369 48.008 0.443382 47.9951 0.50903 47.9951H1.50866C1.5743 47.9951 1.63932 48.008 1.69998 48.0331C1.76064 48.0582 1.81576 48.095 1.86219 48.1414C1.90861 48.1878 1.94543 48.2429 1.97054 48.3036C1.99565 48.3642 2.00856 48.4292 2.00853 48.4949C2.00856 48.5605 1.99566 48.6255 1.97055 48.6862C1.94544 48.7469 1.90862 48.802 1.86219 48.8484C1.81577 48.8948 1.76065 48.9317 1.69999 48.9568C1.63933 48.9819 1.57431 48.9948 1.50866 48.9947Z" fill="#003B80"/>
<path d="M9.50607 19.004H5.50732C5.23107 19.004 5.00745 18.7804 5.00745 18.5041C5.00745 18.2279 5.23107 18.0042 5.50732 18.0042H9.50607C9.78232 18.0042 10.0059 18.2279 10.0059 18.5041C10.0059 18.7804 9.78245 19.004 9.50607 19.004ZM26.5009 22.003H13.5049C13.2287 22.003 13.0051 21.7795 13.0051 21.5031C13.0051 21.2267 13.2287 21.0032 13.5049 21.0032H26.5009C26.7772 21.0032 27.0008 21.2267 27.0008 21.5031C27.0008 21.7795 26.7772 22.003 26.5009 22.003ZM11.5054 22.003H6.50707C6.23082 22.003 6.0072 21.7795 6.0072 21.5031C6.0072 21.2267 6.2307 21.0032 6.50707 21.0032H11.5056C11.7818 21.0032 12.0054 21.2267 12.0054 21.5031C12.0054 21.7795 11.7817 22.003 11.5054 22.003ZM38.4977 25.0022H25.5012C25.4355 25.0023 25.3705 24.9894 25.3099 24.9643C25.2492 24.9391 25.1941 24.9023 25.1477 24.8559C25.1012 24.8095 25.0644 24.7544 25.0393 24.6937C25.0142 24.633 25.0013 24.568 25.0013 24.5024C25.0013 24.4367 25.0142 24.3717 25.0393 24.311C25.0644 24.2504 25.1012 24.1953 25.1477 24.1488C25.1941 24.1024 25.2492 24.0656 25.3099 24.0405C25.3705 24.0154 25.4355 24.0025 25.5012 24.0025H38.4977C38.5633 24.0025 38.6284 24.0154 38.689 24.0405C38.7497 24.0656 38.8048 24.1024 38.8512 24.1488C38.8976 24.1953 38.9344 24.2504 38.9595 24.311C38.9846 24.3717 38.9975 24.4367 38.9974 24.5024C38.9975 24.568 38.9846 24.633 38.9595 24.6937C38.9344 24.7544 38.8976 24.8095 38.8512 24.8559C38.8048 24.9023 38.7497 24.9391 38.689 24.9643C38.6284 24.9894 38.5633 25.0023 38.4977 25.0022ZM23.5018 25.0022H7.5067C7.44104 25.0023 7.37603 24.9894 7.31536 24.9643C7.2547 24.9391 7.19958 24.9023 7.15316 24.8559C7.10673 24.8095 7.06991 24.7544 7.04481 24.6937C7.0197 24.633 7.00679 24.568 7.00682 24.5024C7.00679 24.4367 7.0197 24.3717 7.04481 24.311C7.06991 24.2504 7.10673 24.1953 7.15316 24.1488C7.19958 24.1024 7.2547 24.0656 7.31536 24.0405C7.37603 24.0154 7.44104 24.0025 7.5067 24.0025H23.5018C23.5675 24.0025 23.6325 24.0154 23.6932 24.0405C23.7538 24.0656 23.8089 24.1024 23.8554 24.1488C23.9018 24.1953 23.9386 24.2504 23.9637 24.311C23.9888 24.3717 24.0017 24.4367 24.0017 24.5024C24.0017 24.568 23.9888 24.633 23.9637 24.6937C23.9386 24.7544 23.9018 24.8095 23.8554 24.8559C23.8089 24.9023 23.7538 24.9391 23.6932 24.9643C23.6325 24.9894 23.5675 25.0023 23.5018 25.0022ZM10.5058 31.0002H7.5067C7.44104 31.0003 7.37603 30.9874 7.31536 30.9623C7.2547 30.9371 7.19958 30.9003 7.15316 30.8539C7.10673 30.8075 7.06991 30.7524 7.04481 30.6917C7.0197 30.631 7.00679 30.566 7.00682 30.5004C7.00679 30.4347 7.0197 30.3697 7.04481 30.309C7.06991 30.2484 7.10673 30.1933 7.15316 30.1468C7.19958 30.1004 7.2547 30.0636 7.31536 30.0385C7.37603 30.0134 7.44104 30.0005 7.5067 30.0005H10.5058C10.5715 30.0005 10.6365 30.0134 10.6972 30.0385C10.7578 30.0636 10.8129 30.1004 10.8594 30.1468C10.9058 30.1933 10.9426 30.2484 10.9677 30.309C10.9928 30.3697 11.0057 30.4347 11.0057 30.5004C11.0057 30.566 10.9928 30.631 10.9677 30.6917C10.9426 30.7524 10.9058 30.8075 10.8594 30.8539C10.8129 30.9003 10.7578 30.9371 10.6972 30.9623C10.6365 30.9874 10.5715 31.0003 10.5058 31.0002ZM26.3447 31.0002H12.5052C12.4395 31.0003 12.3745 30.9874 12.3139 30.9623C12.2532 30.9371 12.1981 30.9003 12.1517 30.8539C12.1052 30.8075 12.0684 30.7524 12.0433 30.6917C12.0182 30.631 12.0053 30.566 12.0053 30.5004C12.0053 30.4347 12.0182 30.3697 12.0433 30.309C12.0684 30.2484 12.1052 30.1933 12.1517 30.1468C12.1981 30.1004 12.2532 30.0636 12.3139 30.0385C12.3745 30.0134 12.4395 30.0005 12.5052 30.0005H26.3447C26.4103 30.0005 26.4754 30.0134 26.536 30.0385C26.5967 30.0636 26.6518 30.1004 26.6982 30.1468C26.7447 30.1933 26.7815 30.2484 26.8066 30.309C26.8317 30.3697 26.8446 30.4347 26.8446 30.5004C26.8446 30.566 26.8317 30.631 26.8066 30.6917C26.7815 30.7524 26.7447 30.8075 26.6982 30.8539C26.6518 30.9003 26.5967 30.9371 26.536 30.9623C26.4754 30.9874 26.4103 31.0003 26.3447 31.0002ZM10.5058 42.9966H7.5067C7.44105 42.9967 7.37603 42.9838 7.31537 42.9587C7.25471 42.9336 7.19959 42.8968 7.15317 42.8504C7.10674 42.8039 7.06992 42.7488 7.04481 42.6882C7.0197 42.6275 7.00679 42.5625 7.00682 42.4969C7.00679 42.4312 7.0197 42.3662 7.04481 42.3055C7.06991 42.2449 7.10673 42.1898 7.15316 42.1433C7.19958 42.0969 7.2547 42.0601 7.31536 42.035C7.37603 42.0099 7.44104 41.997 7.5067 41.997H10.5058C10.5715 41.997 10.6365 42.0099 10.6972 42.035C10.7578 42.0601 10.8129 42.0969 10.8594 42.1433C10.9058 42.1898 10.9426 42.2449 10.9677 42.3055C10.9928 42.3662 11.0057 42.4312 11.0057 42.4969C11.0057 42.5625 10.9928 42.6275 10.9677 42.6882C10.9426 42.7488 10.9057 42.8039 10.8593 42.8503C10.8129 42.8967 10.7578 42.9335 10.6971 42.9586C10.6365 42.9837 10.5715 42.9966 10.5058 42.9966ZM26.3447 42.9966H12.5052C12.4395 42.9967 12.3745 42.9838 12.3139 42.9587C12.2532 42.9336 12.1981 42.8968 12.1517 42.8504C12.1052 42.8039 12.0684 42.7488 12.0433 42.6882C12.0182 42.6275 12.0053 42.5625 12.0053 42.4969C12.0053 42.4312 12.0182 42.3662 12.0433 42.3055C12.0684 42.2448 12.1052 42.1897 12.1516 42.1433C12.198 42.0969 12.2532 42.06 12.3138 42.0349C12.3745 42.0098 12.4395 41.9969 12.5052 41.997H26.3447C26.4103 41.997 26.4754 42.0099 26.536 42.035C26.5967 42.0601 26.6518 42.0969 26.6982 42.1433C26.7447 42.1898 26.7815 42.2449 26.8066 42.3055C26.8317 42.3662 26.8446 42.4312 26.8446 42.4969C26.8446 42.5625 26.8317 42.6275 26.8066 42.6882C26.7815 42.7488 26.7447 42.8039 26.6982 42.8504C26.6518 42.8968 26.5967 42.9336 26.536 42.9587C26.4754 42.9838 26.4103 42.9967 26.3447 42.9966ZM30.4997 28.0012H8.50645C8.44079 28.0013 8.37578 27.9884 8.31511 27.9633C8.25445 27.9381 8.19933 27.9013 8.15291 27.8549C8.10648 27.8085 8.06966 27.7534 8.04456 27.6927C8.01945 27.632 8.00654 27.567 8.00657 27.5014C8.00654 27.4357 8.01945 27.3707 8.04456 27.31C8.06966 27.2494 8.10648 27.1943 8.15291 27.1478C8.19933 27.1014 8.25445 27.0646 8.31511 27.0395C8.37578 27.0144 8.44079 27.0015 8.50645 27.0015H30.4997C30.5653 27.0015 30.6304 27.0144 30.691 27.0395C30.7517 27.0646 30.8068 27.1014 30.8532 27.1478C30.8997 27.1943 30.9365 27.2494 30.9616 27.31C30.9867 27.3707 30.9996 27.4357 30.9996 27.5014C30.9996 27.567 30.9867 27.632 30.9616 27.6927C30.9365 27.7534 30.8997 27.8085 30.8532 27.8549C30.8068 27.9013 30.7517 27.9381 30.691 27.9633C30.6304 27.9884 30.5653 28.0013 30.4997 28.0012ZM29.4999 33.9994H20.5027C20.437 33.9994 20.372 33.9865 20.3114 33.9614C20.2507 33.9363 20.1956 33.8995 20.1492 33.853C20.1027 33.8066 20.0659 33.7515 20.0408 33.6908C20.0157 33.6302 20.0028 33.5651 20.0028 33.4995C20.0028 33.4338 20.0157 33.3688 20.0408 33.3082C20.0659 33.2475 20.1027 33.1924 20.1492 33.146C20.1956 33.0996 20.2507 33.0628 20.3114 33.0377C20.372 33.0126 20.437 32.9997 20.5027 32.9997H29.4999C29.5656 32.9997 29.6306 33.0126 29.6913 33.0377C29.7519 33.0628 29.8071 33.0996 29.8535 33.146C29.8999 33.1924 29.9367 33.2475 29.9618 33.3082C29.9869 33.3688 29.9999 33.4338 29.9998 33.4995C29.9999 33.5651 29.9869 33.6302 29.9618 33.6908C29.9367 33.7515 29.8999 33.8066 29.8535 33.853C29.8071 33.8995 29.7519 33.9363 29.6913 33.9614C29.6306 33.9865 29.5656 33.9994 29.4999 33.9994ZM22.5022 36.9985H6.50707C6.23082 36.9985 6.0072 36.7749 6.0072 36.4986C6.0072 36.2224 6.2307 35.9987 6.50707 35.9987H22.5022C22.7784 35.9987 23.0021 36.2224 23.0021 36.4986C23.0021 36.7749 22.7784 36.9985 22.5022 36.9985ZM17.5037 45.9957H6.50707C6.44142 45.9958 6.3764 45.9829 6.31574 45.9578C6.25508 45.9326 6.19996 45.8958 6.15353 45.8494C6.10711 45.803 6.07029 45.7479 6.04518 45.6872C6.02007 45.6265 6.00716 45.5615 6.0072 45.4959C6.00716 45.4302 6.02007 45.3652 6.04518 45.3046C6.07029 45.2439 6.10711 45.1888 6.15354 45.1424C6.19997 45.096 6.25509 45.0592 6.31575 45.0341C6.37641 45.009 6.44142 44.9961 6.50707 44.9961H17.5037C17.5693 44.9961 17.6344 45.009 17.695 45.0341C17.7557 45.0592 17.8108 45.096 17.8572 45.1424C17.9037 45.1888 17.9405 45.2439 17.9656 45.3046C17.9907 45.3652 18.0036 45.4302 18.0036 45.4959C18.0036 45.5615 17.9907 45.6265 17.9656 45.6872C17.9405 45.7479 17.9037 45.803 17.8572 45.8494C17.8108 45.8958 17.7557 45.9326 17.695 45.9578C17.6344 45.9829 17.5694 45.9958 17.5037 45.9957ZM33.4992 39.9975H19.5031C19.2268 39.9975 19.0032 39.7739 19.0032 39.4976C19.0032 39.2214 19.2268 38.9977 19.5031 38.9977H33.4992C33.7756 38.9977 33.9992 39.2214 33.9992 39.4976C33.9992 39.7739 33.7756 39.9975 33.4992 39.9975ZM17.5037 39.9975H7.5067C7.23045 39.9975 7.00682 39.7739 7.00682 39.4976C7.00682 39.2214 7.23045 38.9977 7.5067 38.9977H17.5037C17.7799 38.9977 18.0036 39.2214 18.0036 39.4976C18.0036 39.7739 17.7799 39.9975 17.5037 39.9975ZM9.50607 48.9947H5.50732C5.44167 48.9948 5.37665 48.9819 5.31599 48.9568C5.25533 48.9316 5.20021 48.8948 5.15378 48.8484C5.10736 48.802 5.07054 48.7469 5.04543 48.6862C5.02032 48.6255 5.00741 48.5605 5.00745 48.4949C5.00741 48.4292 5.02032 48.3642 5.04543 48.3036C5.07054 48.2429 5.10736 48.1878 5.15379 48.1414C5.20022 48.095 5.25534 48.0581 5.316 48.0331C5.37666 48.008 5.44167 47.9951 5.50732 47.9951H9.50607C9.57172 47.9951 9.63673 48.008 9.69739 48.0331C9.75806 48.0581 9.81318 48.095 9.8596 48.1414C9.90603 48.1878 9.94285 48.2429 9.96796 48.3036C9.99307 48.3642 10.006 48.4292 10.0059 48.4949C10.006 48.5605 9.9931 48.6255 9.968 48.6862C9.94289 48.7469 9.90607 48.802 9.85965 48.8484C9.81322 48.8949 9.75809 48.9317 9.69742 48.9568C9.63675 48.9819 9.57173 48.9948 9.50607 48.9947ZM30.4997 36.9985H24.5016C24.2253 36.9985 24.0017 36.7749 24.0017 36.4986C24.0017 36.2224 24.2252 35.9987 24.5016 35.9987H30.4997C30.7761 35.9987 30.9996 36.2224 30.9996 36.4986C30.9996 36.7749 30.7759 36.9985 30.4997 36.9985ZM18.5033 33.9994H7.5067C7.44104 33.9994 7.37603 33.9865 7.31536 33.9614C7.2547 33.9363 7.19958 33.8995 7.15316 33.853C7.10673 33.8066 7.06991 33.7515 7.04481 33.6908C7.0197 33.6302 7.00679 33.5651 7.00682 33.4995C7.00679 33.4338 7.0197 33.3688 7.04481 33.3082C7.06992 33.2475 7.10674 33.1924 7.15317 33.146C7.19959 33.0996 7.25471 33.0628 7.31537 33.0377C7.37603 33.0126 7.44105 32.9997 7.5067 32.9997H18.5033C18.569 32.9997 18.634 33.0126 18.6946 33.0377C18.7553 33.0628 18.8104 33.0996 18.8569 33.146C18.9033 33.1924 18.9401 33.2475 18.9652 33.3082C18.9903 33.3688 19.0032 33.4338 19.0032 33.4995C19.0032 33.5652 18.9903 33.6302 18.9652 33.6908C18.9401 33.7515 18.9033 33.8066 18.8569 33.8531C18.8105 33.8995 18.7553 33.9363 18.6947 33.9614C18.634 33.9865 18.569 33.9994 18.5033 33.9994Z" fill="#003B80"/>
</svg>
