<svg width="64" height="64" viewBox="0 0 64 64" fill="none" xmlns="http://www.w3.org/2000/svg">
<path d="M54 58H8C5.79 58 4 56.208 4 54V30C4 30 14.442 35.37 24 37.568V40C24 41.106 24.894 42 26 42H36C37.104 42 38 41.106 38 40V37.568C47.556 35.37 58 30 58 30V54C58 56.208 56.208 58 54 58ZM34 34C35.104 34 36 34.894 36 36V38C36 39.106 35.104 40 34 40H28C26.894 40 26 39.106 26 38V36C26 34.894 26.894 34 28 34H34ZM38 34C38 32.894 37.104 32 36 32H26C24.894 32 24 32.894 24 34V35.792C14.442 33.528 4 28 4 28V20C4 17.792 5.79 16 8 16H20V12C20 9.792 21.792 8 24 8H38C40.208 8 42 9.792 42 12V16H54C56.208 16 58 17.792 58 20V28C58 28 47.556 33.528 38 35.792V34ZM38 14C38 12.894 37.104 12 36 12H26C24.894 12 24 12.894 24 14C24 15.104 24 16 24 16H38C38 16 38 15.104 38 14Z" fill="#141414"/>
</svg>
