<svg width="64" height="64" viewBox="0 0 64 64" fill="none" xmlns="http://www.w3.org/2000/svg">
<path d="M30.6746 26.1556L22.0095 25.1052L16.4246 21.3932C16.9214 21.5153 18.2938 21.9146 19.7597 22.4882C19.5863 21.8907 19.2678 21.339 18.8249 20.8857C18.1142 20.1585 17.1424 19.7455 16.1257 19.7382L12.6188 19.7131C10.4988 19.6978 8.77328 21.4171 8.77915 23.5358L8.81453 36.4662C8.81728 37.4804 9.22416 38.4515 9.94491 39.1652C10.4534 39.6684 11.0888 40.0134 11.7749 40.1708H6.9829L3.73388 23.6423C3.53313 22.6211 2.54238 21.9562 1.52138 22.1567C0.500122 22.3575 -0.165006 23.3481 0.0357453 24.3692L3.58376 42.4189C3.75751 43.3027 4.53226 43.9399 5.43289 43.9399H10.5663V50.4676L4.74751 53.6541C4.13901 53.9875 3.91576 54.7508 4.24901 55.3595C4.58226 55.9681 5.34552 56.1914 5.95439 55.858L11.8228 52.6445L17.6912 55.858C18.3001 56.1915 19.0634 55.9677 19.3966 55.3595C19.7299 54.751 19.5067 53.9875 18.8981 53.6541L13.0792 50.4676V43.9399H18.6244C19.6652 43.9399 20.5089 43.0962 20.5089 42.0554C20.5089 41.4249 20.1983 40.8684 19.7229 40.5263L21.4762 40.935V53.323C21.4762 54.8317 22.6993 56.0549 24.2081 56.0549C25.7168 56.0549 26.94 54.8317 26.94 53.323V38.7667C26.94 37.4967 26.0651 36.3943 24.8283 36.106L19.7323 34.918L19.7963 30.9946L14.5811 25.6351L19.9391 29.1962C20.2349 29.3929 20.5726 29.5176 20.9253 29.5602L30.1269 30.6756C31.3792 30.8269 32.51 29.9341 32.6609 28.6895C32.812 27.4415 31.9229 26.3071 30.6746 26.1556Z" fill="#003B80"/>
<path d="M17.3364 17.9942C20.1114 17.9942 22.3611 15.7446 22.3611 12.9696C22.3611 10.1945 20.1114 7.94492 17.3364 7.94492C14.5614 7.94492 12.3118 10.1945 12.3118 12.9696C12.3118 15.7446 14.5614 17.9942 17.3364 17.9942Z" fill="#003B80"/>
<path d="M62.2832 32.0547H28.6322C27.6839 32.0547 26.9152 32.8235 26.9152 33.7718C26.9152 34.72 27.6839 35.4888 28.6322 35.4888H29.4672V54.1723C29.4672 55.212 30.3099 56.0548 31.3497 56.0548H31.3572C32.3968 56.0548 33.2397 55.2121 33.2397 54.1723V35.4888H57.7863V54.1723C57.7863 55.212 58.629 56.0548 59.6688 56.0548H59.6763C60.7159 56.0548 61.5588 55.2121 61.5588 54.1723V35.4888H62.2828C63.2311 35.4888 63.9998 34.72 63.9998 33.7718C64.0002 32.8235 63.2314 32.0547 62.2832 32.0547Z" fill="#003B80"/>
<path d="M50.5696 27.8825H48.0084V19.1256L50.1643 13.8489C50.4267 13.2067 50.1188 12.4732 49.4764 12.2108C48.8343 11.9483 48.1007 12.2564 47.8383 12.8986C45.9366 17.5529 44.7713 20.4051 42.8884 25.0131C42.626 25.6555 42.934 26.389 43.5763 26.6514C44.2189 26.9139 44.9522 26.6056 45.2144 25.9636L45.4958 25.2751V29.1387C45.4958 29.8326 46.0582 30.395 46.7521 30.395H50.5694C51.2633 30.395 51.8257 29.8325 51.8257 29.1387C51.8258 28.4449 51.2633 27.8825 50.5696 27.8825Z" fill="#003B80"/>
<path d="M40.6246 28.0315H35.7914C35.0975 28.0315 34.5352 28.5939 34.5352 29.2877C34.5352 29.9816 35.0975 30.544 35.7914 30.544H40.6246C41.3184 30.544 41.8808 29.9816 41.8808 29.2877C41.8808 28.5939 41.3184 28.0315 40.6246 28.0315Z" fill="#003B80"/>
</svg>
