<svg width="32" height="32" viewBox="0 0 32 32" fill="none" xmlns="http://www.w3.org/2000/svg">
<path d="M24.96 5.3333H7.16004C6.93061 5.32256 6.70131 5.35716 6.48527 5.43514C6.26923 5.51313 6.07069 5.63296 5.90101 5.78776C5.73135 5.94257 5.59387 6.12933 5.49647 6.33733C5.39907 6.54534 5.34364 6.77052 5.33337 6.99997V24.84C5.34681 25.3201 5.54359 25.7771 5.88328 26.1167C6.22297 26.4564 6.67983 26.6532 7.16004 26.6667H24.96C25.4268 26.6459 25.867 26.4429 26.186 26.1015C26.5051 25.76 26.6776 25.3072 26.6667 24.84V6.99997C26.6706 6.77664 26.6287 6.55489 26.5438 6.3483C26.4588 6.14173 26.3326 5.95468 26.1727 5.79861C26.013 5.64256 25.823 5.5208 25.6144 5.44078C25.4059 5.36077 25.1832 5.3242 24.96 5.3333ZM12 23.12H8.89337V13.6133H12V23.12ZM10.52 12.1733C10.3033 12.1809 10.0872 12.1435 9.88559 12.0636C9.68392 11.9837 9.50096 11.8629 9.34821 11.7089C9.19545 11.5549 9.07619 11.3709 8.99792 11.1686C8.91964 10.9663 8.88405 10.75 8.89337 10.5333C8.88379 10.3142 8.92009 10.0956 8.99997 9.8914C9.07985 9.68718 9.20153 9.50193 9.3572 9.34752C9.51288 9.19309 9.69911 9.07292 9.90395 8.9947C10.1088 8.91648 10.3277 8.88194 10.5467 8.8933C10.7635 8.88576 10.9795 8.9231 11.1812 9.00302C11.3828 9.08294 11.5658 9.2037 11.7185 9.35772C11.8713 9.51173 11.9906 9.69566 12.0688 9.89797C12.1471 10.1003 12.1827 10.3166 12.1734 10.5333C12.183 10.7524 12.1467 10.971 12.0668 11.1752C11.9869 11.3794 11.8652 11.5647 11.7095 11.7191C11.5539 11.8735 11.3676 11.9937 11.1628 12.0719C10.9579 12.1501 10.739 12.1847 10.52 12.1733ZM23.12 23.12H20V17.92C20 16.68 19.56 15.8267 18.4534 15.8267C18.1096 15.8296 17.7751 15.9388 17.4959 16.1393C17.2166 16.3399 17.0062 16.6219 16.8934 16.9467C16.8067 17.1901 16.7704 17.4487 16.7867 17.7067V23.12H13.72V13.6133H16.7867V14.9467C17.0594 14.4457 17.4651 14.03 17.9592 13.7452C18.4534 13.4605 19.0166 13.318 19.5867 13.3333C21.6 13.3333 23.12 14.6667 23.12 17.5067V23.12Z" fill="white"/>
</svg>
