<svg width="112" height="37" viewBox="0 0 112 37" fill="none" xmlns="http://www.w3.org/2000/svg">
<path d="M0.018594 19.92V16.52L16.0986 6.28V11.48L5.29859 18.08V18.36L16.0986 24.96V30.16L0.018594 19.92ZM20.243 36.04L31.723 0.4H36.003L24.523 36.04H20.243ZM56.1839 2.08V22.16C56.1839 23.4133 55.9706 24.5467 55.5439 25.56C55.1439 26.5733 54.5572 27.44 53.7839 28.16C53.0372 28.88 52.1172 29.44 51.0239 29.84C49.9306 30.24 48.7039 30.44 47.3439 30.44C44.7572 30.44 42.7439 29.7733 41.3039 28.44C39.8639 27.08 38.9439 25.28 38.5439 23.04L43.4239 22.04C43.6639 23.24 44.0906 24.1733 44.7039 24.84C45.3439 25.48 46.2106 25.8 47.3039 25.8C48.3439 25.8 49.1972 25.48 49.8639 24.84C50.5572 24.1733 50.9039 23.16 50.9039 21.8V6.4H42.1039V2.08H56.1839ZM83.6608 9.96H83.5008L81.3408 14.4L75.6208 24.96L69.9008 14.4L67.7408 9.96H67.5808V30H62.5808V2.08H68.5408L75.7008 15.72H75.8608L82.9408 2.08H88.6608V30H83.6608V9.96ZM95.917 24.96L106.717 18.36V18.08L95.917 11.48V6.28L111.997 16.52V19.88L95.917 30.2V24.96Z" fill="#141414"/>
</svg>
