<svg width="64" height="64" viewBox="0 0 64 64" fill="none" xmlns="http://www.w3.org/2000/svg">
<path d="M32 63.8813C31.089 63.8813 30.2386 63.6464 29.4493 63.2357L21.3719 58.5995C20.1573 57.9539 20.7646 57.7192 21.129 57.6016C22.7688 57.0736 23.0724 56.9563 24.7729 56.0171C24.9551 55.8997 25.198 55.9584 25.3802 56.0757L31.5749 59.6557C31.8178 59.7731 32.1213 59.7731 32.3037 59.6557L56.5354 46.0989C56.7784 45.9816 56.9 45.7469 56.9 45.4533V18.3985C56.9 18.1051 56.7784 17.8703 56.5354 17.7529L32.3037 4.25483C32.0608 4.13747 31.757 4.13747 31.5749 4.25483L7.34295 17.7529C7.10004 17.8703 6.97857 18.1638 6.97857 18.3985V45.4533C6.97857 45.6883 7.10004 45.9816 7.34295 46.0989L13.9627 49.7963C17.5459 51.5568 19.7929 49.5029 19.7929 47.4488V20.746C19.7929 20.3939 20.0966 20.0418 20.5217 20.0418H23.619C23.9834 20.0418 24.3478 20.3352 24.3478 20.746V47.4488C24.3478 52.0851 21.7363 54.7848 17.1815 54.7848C15.7846 54.7848 14.6915 54.7848 11.5942 53.3176L5.21735 49.7963C3.63833 48.916 2.66663 47.2728 2.66663 45.512V18.4572C2.66663 16.6966 3.63833 15.0533 5.21735 14.173L29.4493 0.616218C30.9674 -0.205406 33.0325 -0.205406 34.5506 0.616218L58.7826 14.173C60.3616 15.0533 61.3333 16.6966 61.3333 18.4572V45.512C61.3333 47.2728 60.3616 48.916 58.7826 49.7963L34.5506 63.3531C33.7613 63.7051 32.8501 63.8813 32 63.8813ZM39.4698 45.2773C28.8418 45.2773 26.6556 40.5824 26.6556 36.5917C26.6556 36.2395 26.9592 35.8875 27.3845 35.8875H30.5424C30.9069 35.8875 31.2104 36.1221 31.2104 36.4741C31.6962 39.5845 33.093 41.1107 39.5306 41.1107C44.6322 41.1107 46.8184 39.9955 46.8184 37.3547C46.8184 35.8288 46.2112 34.7136 38.2554 33.9507C31.6357 33.3051 27.5058 31.8965 27.5058 26.7909C27.5058 22.0371 31.6357 19.2201 38.5589 19.2201C46.3325 19.2201 50.1586 21.8024 50.6445 27.4363C50.6445 27.6125 50.5837 27.7885 50.4624 27.9645C50.3408 28.0819 50.1586 28.1992 49.9765 28.1992H46.8184C46.5149 28.1992 46.2112 27.9645 46.1504 27.6712C45.4216 24.4433 43.5389 23.3869 38.5589 23.3869C32.9717 23.3869 32.3037 25.2649 32.3037 26.6733C32.3037 28.3755 33.093 28.9035 40.624 29.8427C48.0938 30.7816 51.6162 32.1315 51.6162 37.1784C51.5554 42.3429 47.1829 45.2773 39.4698 45.2773Z" fill="#141414"/>
</svg>
