<svg width="64" height="64" viewBox="0 0 64 64" fill="none" xmlns="http://www.w3.org/2000/svg">
<g clip-path="url(#clip0_136_225)">
<path d="M64 50.0923V9.08954H0V50.0923H26.1221V52.7313H12.4668V54.9091H50.7015V52.7313H37.3419V50.0923H64ZM4.68114 44.0556V13.7707H59.3175V44.0515H4.68114V44.0556Z" fill="#003B80"/>
<path d="M26.327 34.0353H13.6228L9.85889 34.2266V36.8155H34.6635V34.0353H27.0719H26.327ZM30.3976 35.7449H22.559V35.2252H30.3976V35.7449Z" fill="#003B80"/>
<path d="M15.5821 17.9484H37.8195V18.5834H39.7802V15.9864H13.6228V33.2347H34.6621V31.2768H15.5821V17.9484Z" fill="#003B80"/>
<path d="M37.73 21.6024H47.4139V25.1411H49.3827V19.6309H35.7599V40.061H43.5116V38.3813C43.5116 38.7449 43.2199 39.038 42.8562 39.038C42.4926 39.038 42.2009 38.7435 42.2009 38.3813C42.2009 38.019 42.4953 37.7273 42.8562 37.7273C43.2171 37.7273 43.5116 38.019 43.5116 38.3813V36.6743H37.7287L37.73 21.6024Z" fill="#003B80"/>
<path d="M44.6173 42.0814H54.1438V26.0556H44.6173V42.0814ZM49.5006 41.3921C49.1953 41.3921 48.9511 41.1424 48.9511 40.8412C48.9511 40.54 49.1967 40.2931 49.5006 40.2931C49.8046 40.2931 50.0488 40.54 50.0488 40.8412C50.0488 41.1424 49.8046 41.3921 49.5006 41.3921ZM49.5915 26.7191C49.7191 26.7191 49.8208 26.8222 49.8208 26.9498C49.8208 27.076 49.7191 27.1791 49.5915 27.1791C49.464 27.1791 49.3609 27.076 49.3609 26.9498C49.3609 26.8236 49.464 26.7191 49.5915 26.7191ZM48.2225 27.4884H50.9647V27.7096H48.2225V27.4884ZM46.1451 28.4979L52.616 28.4952V39.5047C50.1424 39.5156 47.3744 39.5264 46.1451 39.5156V28.4979Z" fill="#003B80"/>
</g>
<defs>
<clipPath id="clip0_136_225">
<rect width="64" height="64" fill="white"/>
</clipPath>
</defs>
</svg>
