<svg width="64" height="64" viewBox="0 0 64 64" fill="none" xmlns="http://www.w3.org/2000/svg">
<g clip-path="url(#clip0_146_165)">
<path fill-rule="evenodd" clip-rule="evenodd" d="M19.3334 6.36646C22.7967 5.59681 26.9981 5.33228 31.9999 5.33228C37.0018 5.33228 41.2031 5.59681 44.6663 6.36646C48.1599 7.14286 51.0634 8.46827 53.297 10.7018C55.5306 12.9354 56.8559 15.839 57.6325 19.3325C58.4021 22.7957 58.6666 26.9971 58.6666 31.9989C58.6666 37.0008 58.4021 41.2021 57.6325 44.6653C56.8559 48.1589 55.5306 51.0624 53.297 53.296C51.0634 55.5296 48.1599 56.8549 44.6663 57.6315C41.2031 58.4011 37.0018 58.6656 31.9999 58.6656C26.9981 58.6656 22.7967 58.4011 19.3334 57.6315C15.84 56.8549 12.9363 55.5296 10.7028 53.296C8.46925 51.0624 7.14384 48.1589 6.36744 44.6653C5.59779 41.2021 5.33325 37.0008 5.33325 31.9989C5.33325 26.9971 5.59779 22.7957 6.36744 19.3325C7.14384 15.839 8.46925 12.9354 10.7028 10.7018C12.9363 8.46827 15.84 7.14286 19.3334 6.36646ZM23.9999 30.6656C23.9999 26.9837 26.9847 23.9989 30.6666 23.9989C34.3484 23.9989 37.3333 26.9837 37.3333 30.6656C37.3333 34.3475 34.3484 37.3323 30.6666 37.3323C26.9847 37.3323 23.9999 34.3475 23.9999 30.6656ZM30.6666 18.6656C24.0392 18.6656 18.6666 24.0382 18.6666 30.6656C18.6666 37.2931 24.0392 42.6656 30.6666 42.6656C33.0146 42.6656 35.2053 41.9912 37.0551 40.8256L40.781 44.5512C41.8223 45.5925 43.5108 45.5925 44.5522 44.5512C45.5935 43.5099 45.5935 41.8213 44.5522 40.78L40.8266 37.0541C41.9922 35.2043 42.6666 33.0136 42.6666 30.6656C42.6666 24.0382 37.2941 18.6656 30.6666 18.6656Z" fill="#003B80"/>
</g>
<defs>
<clipPath id="clip0_146_165">
<rect width="64" height="64" fill="white" transform="translate(0 -0.000976562)"/>
</clipPath>
</defs>
</svg>
