<svg width="68" height="58" viewBox="0 0 68 58" fill="none" xmlns="http://www.w3.org/2000/svg">
<path fill-rule="evenodd" clip-rule="evenodd" d="M34.0542 33.8048C33.144 33.8206 32.2488 33.6083 31.4828 33.1948C30.7168 32.7813 30.1147 32.1855 29.7533 31.4833C29.3919 30.7811 29.2875 30.0043 29.4535 29.2521C29.6194 28.4998 30.0483 27.8061 30.6852 27.2595C31.3222 26.7129 32.1385 26.3381 33.0299 26.1829C33.9214 26.0277 34.8476 26.0992 35.6906 26.3882C36.5335 26.6772 37.2549 27.1707 37.7628 27.8057C38.2707 28.4406 38.542 29.1883 38.5422 29.9534C38.553 30.9639 38.0867 31.9367 37.2454 32.6587C36.4041 33.3806 35.2565 33.7928 34.0542 33.8048Z" fill="#525252"/>
<path fill-rule="evenodd" clip-rule="evenodd" d="M54.8425 27.4219H51.072V16.0782C51.0546 15.0729 50.5721 14.1127 49.7267 13.4012C48.8814 12.6898 47.7396 12.2828 46.5434 12.2667H21.4566C20.2593 12.2829 19.1165 12.6906 18.271 13.4033C17.4255 14.116 16.9437 15.0776 16.928 16.0839V27.4219H13.1576C12.5767 27.4485 12.03 27.6612 11.63 28.0162C11.2301 28.3713 11.0071 28.8416 11.0071 29.3305C11.0071 29.8194 11.2301 30.2897 11.63 30.6447C12.03 30.9997 12.5767 31.2124 13.1576 31.2391H16.928V42.5884C16.9455 43.5938 17.428 44.5539 18.2733 45.2654C19.1187 45.9769 20.2604 46.3838 21.4566 46.4H46.5434C47.7408 46.3838 48.8835 45.9761 49.7291 45.2634C50.5746 44.5507 51.0563 43.5891 51.072 42.5827V31.2448H54.8425C55.4234 31.2181 55.97 31.0054 56.37 30.6504C56.77 30.2954 56.9929 29.8251 56.9929 29.3362C56.9929 28.8473 56.77 28.3769 56.37 28.0219C55.97 27.6669 55.4234 27.4542 54.8425 27.4276V27.4219ZM45.3182 34.7036L44.5262 35.8414C44.3658 36.044 44.1499 36.2112 43.8967 36.329C43.6434 36.4468 43.3602 36.5117 43.0708 36.5184C42.8662 36.5078 42.665 36.4694 42.4751 36.4046L40.2954 35.6707C39.3733 36.3691 38.2969 36.9083 37.1274 37.2579L36.7077 39.3458C36.64 39.6745 36.4381 39.9731 36.1366 40.1901C35.8351 40.4072 35.4529 40.529 35.056 40.5348H33.4314C33.0345 40.529 32.6524 40.4072 32.3509 40.1901C32.0494 39.9731 31.8474 39.6745 31.7797 39.3458L31.3803 37.2523C30.2522 36.9519 29.2152 36.4492 28.3409 35.7788L26.0326 36.5127C25.8427 36.5774 25.6415 36.6159 25.4369 36.6265C25.1394 36.621 24.8487 36.5504 24.5935 36.4217C24.3383 36.293 24.1274 36.1107 23.9816 35.8926L23.1693 34.7036C22.9709 34.41 22.9022 34.067 22.9753 33.7351C23.0483 33.4031 23.2585 33.1034 23.5686 32.8889L25.4843 31.5292C25.3573 31.0261 25.2915 30.5133 25.288 29.9989C25.2916 29.5034 25.3574 29.0095 25.4843 28.5255L23.5957 27.1716C23.2771 26.9612 23.0589 26.6619 22.9806 26.3278C22.9024 25.9938 22.9693 25.6472 23.1693 25.3511L23.9613 24.1621C24.101 23.9398 24.3105 23.7538 24.567 23.6244C24.8236 23.4951 25.1174 23.4272 25.4166 23.4283C25.6212 23.4389 25.8224 23.4773 26.0123 23.542L28.3206 24.2759C29.2091 23.6084 30.2406 23.0891 31.36 22.7456L31.7797 20.8C31.8366 20.4714 32.0375 20.1725 32.3431 19.962C32.6487 19.7515 33.0368 19.6446 33.4314 19.6622H35.0831C35.4581 19.6483 35.8269 19.7464 36.1242 19.939C36.4215 20.1316 36.6282 20.4063 36.7077 20.7147L37.1071 22.7513C38.2294 23.0687 39.2683 23.5651 40.1668 24.2133L42.4751 23.4795C42.665 23.4147 42.8662 23.3763 43.0708 23.3657C43.3683 23.3712 43.6591 23.4418 43.9143 23.5704C44.1695 23.6991 44.3804 23.8815 44.5262 24.0996L45.3182 25.2885C45.5002 25.5855 45.5598 25.9248 45.4875 26.2533C45.4152 26.5817 45.2152 26.8807 44.9188 27.1033L43.0031 28.4629C43.1338 28.9656 43.1996 29.4787 43.1994 29.9932C43.1958 30.4888 43.13 30.9827 43.0031 31.4667L44.9188 32.8263C45.2348 33.0513 45.4476 33.3619 45.5205 33.7046C45.5934 34.0472 45.5219 34.4005 45.3182 34.7036Z" fill="#525252"/>
</svg>
