<svg width="32" height="32" viewBox="0 0 32 32" fill="none" xmlns="http://www.w3.org/2000/svg">
<path fill-rule="evenodd" clip-rule="evenodd" d="M4.66667 16C4.66667 9.74077 9.74078 4.66667 16 4.66667C22.2592 4.66667 27.3333 9.74077 27.3333 16C27.3333 22.2592 22.2592 27.3333 16 27.3333C13.7704 27.3333 11.695 26.6909 9.94395 25.5815C9.61807 25.3751 9.21875 25.3199 8.8491 25.4301L5.01023 26.5759L6.45562 23.1937C6.62646 22.794 6.5917 22.3361 6.36247 21.9668C5.28758 20.2347 4.66667 18.1919 4.66667 16ZM16 2C8.26802 2 2.00001 8.26801 2.00001 16C2.00001 18.4508 2.63086 20.7577 3.73951 22.7636L1.44061 28.1427C1.23738 28.6183 1.32746 29.1684 1.67174 29.5543C2.01602 29.9403 2.55241 30.0923 3.04797 29.9443L9.04719 28.154C11.0966 29.3287 13.4716 30 16 30C23.732 30 30 23.732 30 16C30 8.26801 23.732 2 16 2ZM19.0566 18.9099L17.3044 20.1441C16.4837 19.6767 15.5764 19.0241 14.6662 18.114C13.7201 17.1679 13.0187 16.1911 12.5015 15.2951L13.615 14.3499C14.0929 13.9443 14.2237 13.2604 13.9293 12.707L12.5104 10.0404C12.3194 9.68129 11.9749 9.42907 11.5748 9.35539C11.1748 9.28172 10.7631 9.39467 10.4566 9.66212L10.0359 10.0293C9.02429 10.9122 8.42598 12.3631 8.92186 13.8321C9.43595 15.3551 10.5331 17.752 12.7807 19.9996C15.1988 22.4177 17.655 23.37 19.0914 23.7399C20.2488 24.0377 21.344 23.6384 22.1157 23.0096L22.9044 22.3669C23.2417 22.0921 23.4237 21.6699 23.392 21.2359C23.3601 20.8019 23.1185 20.4107 22.7446 20.1879L20.5069 18.8545C20.0549 18.5853 19.4869 18.6069 19.0566 18.9099Z" fill="white"/>
</svg>
